/* XPM */
static char *e62be06eccf44d21e943ac375bd16356EBljw2mu78AFPxtx[] = {
/* columns rows colors chars-per-pixel */
"32 32 174 2 ",
"   c None",
".  c #3B1108",
"X  c #651D0E",
"o  c #642704",
"O  c #672905",
"+  c #742D05",
"@  c #782F05",
"#  c #782F06",
"$  c #7A3005",
"%  c #7F3206",
"&  c #75320C",
"*  c #7F360D",
"=  c #7C3812",
"-  c #4D3528",
";  c #5E3620",
":  c #6F4025",
">  c #6D442D",
",  c #794529",
"<  c #6F4630",
"1  c #6B4834",
"2  c #6B4C3B",
"3  c #714831",
"4  c #764D36",
"5  c #7D4D33",
"6  c #544C48",
"7  c #545558",
"8  c #5D5D5D",
"9  c #5A5F62",
"0  c #5C5F61",
"q  c #5D6265",
"w  c #6E6865",
"e  c #716D6B",
"r  c #737272",
"t  c #737679",
"y  c #7C7D7D",
"u  c #803206",
"i  c #813206",
"p  c #823307",
"a  c #833407",
"s  c #853406",
"d  c #833508",
"f  c #81350B",
"g  c #822512",
"h  c #962A14",
"j  c #883615",
"k  c #9D3E13",
"l  c #9F3F14",
"z  c #C0361A",
"x  c #97400F",
"c  c #8D441B",
"v  c #9B4412",
"b  c #A34015",
"n  c #A44116",
"m  c #A54116",
"M  c #A64217",
"N  c #A04814",
"B  c #A54D17",
"V  c #A74218",
"C  c #A84318",
"Z  c #AA4419",
"A  c #AB441A",
"S  c #AF451C",
"D  c #A54D18",
"F  c #AB521A",
"G  c #B0571D",
"H  c #985834",
"J  c #BA4A21",
"K  c #B55A20",
"L  c #CC7E1B",
"P  c #C04C24",
"I  c #C34E26",
"U  c #C44E27",
"Y  c #C54F27",
"T  c #C85029",
"R  c #CA512A",
"E  c #CD522B",
"W  c #C9512D",
"Q  c #CA512C",
"!  c #CD522C",
"~  c #D1542E",
"^  c #CE801D",
"/  c #3171A7",
"(  c #3775A7",
")  c #3F7CA7",
"_  c #7E8084",
"`  c #4981A7",
"'  c #5286A7",
"]  c #769CB3",
"[  c #63AADB",
"{  c #4BABFD",
"}  c #53B2FE",
"|  c #60BCFE",
" . c #66C0FE",
".. c #6FC4FE",
"X. c #818181",
"o. c #83868A",
"O. c #86898D",
"+. c gray55",
"@. c #8E8E8E",
"#. c #8D9091",
"$. c gray57",
"%. c #939393",
"&. c #909395",
"*. c gray59",
"=. c #949799",
"-. c #96989B",
";. c #979A9C",
":. c #9B9B9B",
">. c gray61",
",. c #9D9D9D",
"<. c gray67",
"1. c #AAABAC",
"2. c #ACACAC",
"3. c #ACADAD",
"4. c #ADAEAF",
"5. c #AFB0B0",
"6. c #B0B1B1",
"7. c #B2B2B2",
"8. c gray70",
"9. c #B4B4B5",
"0. c #B6B6B6",
"q. c #B7B7B7",
"w. c #B6B8B9",
"e. c #B9B9B9",
"r. c #BBB9BB",
"t. c #CAB6AB",
"y. c LightSkyBlue",
"u. c #88D1FE",
"i. c #91D5FE",
"p. c #CBCBCB",
"a. c gray80",
"s. c #D0D0D0",
"d. c #D1D2D2",
"f. c LightGray",
"g. c #D6D6D7",
"h. c #D8D8D8",
"j. c #DADADB",
"k. c #DADBDC",
"l. c #DBDCDD",
"z. c #DCDDDD",
"x. c #DDDEDE",
"c. c #DEDFDF",
"v. c #DEDFE0",
"b. c #DFE0E1",
"n. c #E0E1E1",
"m. c #E1E2E2",
"M. c #E1E2E3",
"N. c #E2E2E2",
"B. c #E2E3E3",
"V. c #E2E3E4",
"C. c #E3E3E4",
"Z. c #E3E4E4",
"A. c #E4E4E4",
"S. c #E4E4E5",
"D. c gray90",
"F. c #E5E5E6",
"G. c #E5E6E6",
"H. c #E6E6E6",
"J. c #E7E7E8",
"K. c #E8E9E9",
"L. c #E9E9E9",
"P. c #EAEAEA",
"I. c #ECECEC",
"U. c gray96",
"Y. c #F6F6F6",
"T. c #F7F8F8",
"R. c #F8F8F8",
"E. c #F8F8F9",
"W. c #F8F9F9",
"Q. c #F9F9F9",
"!. c #F9F9FA",
"~. c gray98",
"^. c #FAFBFB",
"/. c #FBFBFB",
/* pixels */
"                                .                               ",
"                              . . .                             ",
"                                .                               ",
"                              5 s 5                             ",
"                            , n ! Z ,                           ",
"                          & V V s n n &                         ",
"                        + n n 3 8 3 n n +                       ",
"                      + n C 4 $.<.$.4 Z Z +                     ",
"                      s V < >.a.N.a.>.< n s                     ",
"                      s ; ,.p.H.I.H.p.,.; s                     ",
"                      o 7 h.H.w.9 w.H.h.7 O                     ",
"                  $ # j t U.L.9 [ 9 L.U.t j # $                 ",
"              $ f Z ! W o./.L.9 | 0 L./.o.W T A a #             ",
"            i C T ~ A O O./.K.9  .q L./.O.O S ~ T C a           ",
"        i n U ! A s : 6 O./.H.9 | 9 J./.O.6 : d A ! U n i       ",
"    % l P T V f > w @.@.O./.H.9  .9 H./.O.@.@.w > f V T P l i   ",
"  s J I b * 1 e $.0.d.5.o./.H.9 q 8 H./.O.5.d.0.$.e 1 * b P J s ",
"  s v = 2 r *.q.f.A.L.w.O./.H.H.A.A.Z./.O.0.L.H.f.e.*.r 2 = l s ",
"  + - _ :.8.#.q =.k.L.0.O./.Z.M.M.Z.Z./.O.0.L.j.-.9 #.8.>.X.- + ",
"    8 s.g.-.] i.] >.J.9.O.T.N.N.M.M.N.T.O.9.K.;.] i.] -.g.a.q   ",
"    _ U.H.q y.u.y.q Z.9.O./.b.b.N.b.N.T.O.8.Z.q y.u.u.q H.U._   ",
"    O./.Z.9 ' ' ' 9 M.8.O./.t.H s H t./.O.8.N.9 ' ' ' 0 H./.O.  ",
"    O./.Z.9 ..` ..9 M.8.O.U.c B K D c U.O.8.N.9 ..` ..q N./.O.  ",
"    o./.N.q | ` } 9 N.4.O./.s G G G s /.O.4.b.q | ) } 9 N./.O.  ",
"    O./.v.9 } ( } 9 z.4.O.T.s F F F s R.O.4.z.9 } ( } q x.T.O.  ",
"    o./.z.q { / { q z.4.O./.s ^ B B s R.O.4.z.q { / { q x.T.O.  ",
"    O.U.b.#.9 9 q #.j.4.O.T.s L N N s T.O.2.l.&.0 0 q #.z.T.O.  ",
"    O./.l.k.j.j.j.l.j.1.O.U.s v v v a T.O.2.j.l.j.j.j.j.l./.O.  ",
"  g g g g g g g g g g X g g s v x v s g g X g g g g g g g g g g ",
"  g z z z z z z z z z h g r.r.e.e.r.r.r.g h z z z z z z z z z g ",
"  g g g g g g g g g g g y y y y y y y y y g g g g g g g g g g g ",
"                                                                "
};
