/* XPM */
static char *_02ba3f36a044ae2fe4e167a7da3ace9sx0mHVgMEUDEIlI6[] = {
/* columns rows colors chars-per-pixel */
"32 32 28 1 ",
"  c #05263B",
". c #0A4164",
"X c #055888",
"o c #0570B2",
"O c #0471B4",
"+ c #0673B6",
"@ c #0673B7",
"# c #0975B9",
"$ c #0877BB",
"% c #0D77BA",
"& c #0E78BB",
"* c #0979BE",
"= c #0E78BC",
"- c #0F78BC",
"; c #0B7CBC",
": c #1179BD",
"> c #1279BE",
", c #117ABE",
"< c #137ABF",
"1 c #127DBF",
"2 c #0B7CC1",
"3 c #0F7EC3",
"4 c #0E7FC4",
"5 c #1381C2",
"6 c #118BD4",
"7 c #128CD5",
"8 c #1492DC",
"9 c #1694DE",
/* pixels */
"                                ",
"   ,... ..... 75&=;;;8 XXXX...# ",
"  =.... ..... *5;;;;;8 XXX....# ",
" ,..... ..... +3;;;;;8 =......# ",
" ...... ..... %3;;;;;8 ......=# ",
" =%,=,% >&&&% 68898887 &,=&,=,, ",
"                                ",
" ...%o%.....&++++ & XXXXX2=  .. ",
" .... >............ .......  .. ",
" .... >............ .......# .. ",
" ###. ,............ ......., .. ",
"                             .. ",
" 8 ,<<,,&          ,.: 55*** .. ",
" 8 ..,.3....... .....& 5;;;; XX ",
" 8 ............ ....., 5;;;; XX ",
" 8 ............ .....& 5;;;; XX ",
"                2....= 5;;;;    ",
" ......#X 8..XX 53..,@ 78888 ;2 ",
" ......,= 8..XX .3X.,@       o+ ",
" ........ 8..XX ..2.,@ %....... ",
"          8..X. ....,+ ........ ",
" ;; XXX.. 8.... 222,%@ %,==,=== ",
" ;; ..... 8..X.                 ",
" ;; X.... 8.... .....=4XXXXXXXX ",
" ;; X.... 8....  ....XX..XXX.., ",
" ;; ..... 8....  ............%  ",
" ;; ..... 8....  ...........,   ",
" ;; .....                       ",
"  * X.... &#    $....XXXX 8;*95 ",
" *; XX..X =............XX 8;*;; ",
" X2 XXX.. &............XX 8;;;; ",
"                                "
};
