/* XPM */
static char *_7c189a585ad440e9b0761661dfe7a5c88FGdjQm22R3aj75[] = {
/* columns rows colors chars-per-pixel */
"32 32 193 2 ",
"   c None",
".  c #010100",
"X  c #0C0A01",
"o  c #0A0B0B",
"O  c #130E01",
"+  c #160805",
"@  c #151303",
"#  c #1C1A03",
"$  c #171608",
"%  c #0D0E17",
"&  c #0F1013",
"*  c #181816",
"=  c #240900",
"-  c #270700",
";  c #3C0C00",
":  c #3D0400",
">  c #221E05",
",  c #3D1202",
"<  c #262206",
"1  c #2B2809",
"2  c #3D350A",
"3  c #383509",
"4  c #2E2F15",
"5  c #37300F",
"6  c #1B1C21",
"7  c #222325",
"8  c #2B2B28",
"9  c #252D32",
"0  c #37363A",
"q  c #470D00",
"w  c #461200",
"e  c #5A1100",
"r  c #610B00",
"t  c #750F00",
"y  c #691702",
"u  c #711600",
"i  c #443F0D",
"p  c #48360C",
"a  c #5A3409",
"s  c #5A2805",
"d  c #6D3308",
"f  c #653D30",
"g  c #4B460C",
"h  c #524C0F",
"j  c #50410C",
"k  c #5B520F",
"l  c #525110",
"z  c #70460B",
"x  c #615B0D",
"c  c #79560F",
"v  c #7B5F02",
"b  c #685A14",
"n  c #686614",
"m  c #726312",
"M  c #7B6E15",
"N  c #736D15",
"B  c #7A7517",
"V  c #4E505B",
"C  c #66634F",
"Z  c #646453",
"A  c #635F70",
"S  c #5F6062",
"D  c #737164",
"F  c #72747F",
"G  c #870E00",
"H  c #841800",
"J  c #8D1B00",
"K  c #872D04",
"L  c #9E3A03",
"P  c #8A340B",
"I  c #AC2801",
"U  c #B32B02",
"Y  c #B02400",
"T  c #B13D05",
"R  c #CC1D00",
"E  c #CD2800",
"W  c #DB2C01",
"Q  c #D12B02",
"!  c #D43503",
"~  c #E63300",
"^  c #995D0F",
"/  c #8B440B",
"(  c #996A12",
")  c #877B16",
"_  c #8A7E18",
"`  c #857719",
"'  c #B97F0B",
"]  c #B96C10",
"[  c #A97B15",
"{  c #D34F08",
"}  c #CE570B",
"|  c #DC530A",
" . c #CC7111",
".. c #D97813",
"X. c #E66E1D",
"o. c #E97511",
"O. c #DB662A",
"+. c #B27672",
"@. c #938319",
"#. c #968A1A",
"$. c #9E8C1B",
"%. c #98870D",
"&. c #A5951C",
"*. c #AB9C1E",
"=. c #A19015",
"-. c #B19F1F",
";. c #BDA916",
":. c #BAA71E",
">. c #9C923E",
",. c #94872A",
"<. c #B4A621",
"1. c #BDA921",
"2. c #C59F1F",
"3. c #E08A17",
"4. c #C1AD1E",
"5. c #DAA11C",
"6. c #D4A818",
"7. c #E8A91F",
"8. c #F6AB1C",
"9. c #EB8232",
"0. c #C2AB21",
"q. c #C9AC26",
"w. c #CDB924",
"e. c #C9B422",
"r. c #DCB922",
"t. c #E4BC28",
"y. c #F6BB21",
"u. c #E7A837",
"i. c #D5C118",
"p. c #E4CA14",
"a. c #E6CC1D",
"s. c #E2C01A",
"d. c #FFC21D",
"f. c #DDC526",
"g. c #DAC928",
"h. c #D2C03F",
"j. c #E4C224",
"k. c #E5CC26",
"l. c #EACD26",
"z. c #E6CE28",
"x. c #E8CF28",
"c. c #EAC525",
"v. c #F3CA26",
"b. c #EDD425",
"n. c #E6D229",
"m. c #E9D128",
"M. c #ECDB2B",
"N. c #F2D52A",
"B. c #F4DC2B",
"V. c #F9DD2B",
"C. c #F2D421",
"Z. c #F5DD34",
"A. c #EBD53A",
"S. c #EDE02C",
"D. c #F5E32D",
"F. c #FDE42C",
"G. c #FFEB2D",
"H. c #908C6B",
"J. c #B8B26E",
"K. c #EB895F",
"L. c #E39373",
"P. c #E28769",
"I. c #F3DE47",
"U. c #E8D657",
"Y. c #F4E75C",
"T. c #D1C87C",
"R. c #EDDD63",
"E. c #EEDE7E",
"W. c #FFEF6A",
"Q. c #EFE073",
"!. c #F2E276",
"~. c #FFF373",
"^. c #DDD59A",
"/. c #EDC98A",
"(. c #EDF381",
"). c #F6E89B",
"_. c #F2E685",
"`. c #C8C5B0",
"'. c #F6D0A1",
"]. c #F9F1A5",
"[. c #F2EAB2",
"{. c #FFFABB",
"}. c #FFF7BC",
"|. c #C4C5CA",
" X c #DAD6C0",
".X c #C9C9D8",
"XX c #F4D5D5",
"oX c #F3EEC7",
"OX c #FFFEC9",
"+X c #DCDDEA",
"@X c #FCF6ED",
"#X c #FFFEFF",
"$X c #E2E6F3",
/* pixels */
"                                                                ",
"                                          U                     ",
"          ~                           J = ;                     ",
"          q t                     G f 1 . .                     ",
"          a l                   7 +.).q.-                       ",
"          d.B.M               * .XOXn.8.H                       ",
"        K.(.p.C.M & & %     6 |.}.k.b.2.                        ",
"        P._.t.O.L.$X`.oXH.< `.OXb.b.N.L                         ",
"        a 9.XX#X@X{.I.%.w.V.m.b.:.w.*.O                         ",
"        L '.#X).R.p.,.V 1 e.m.N.:.b @             .             ",
"        P u.Y.a.l.m.4 0 . @.F.f.F.x             S |.7 .         ",
"      9 A v w.g.z.M.;.O N c.t.M.z.z.1           D #X`.8 X       ",
"      p $ &.@.k.B.k.F.n.t.| Q 5.B.;.X         @ >.].)._.=.@     ",
"    K e.&.V.$.M *.V.@.n.3.R E | ;.C F         g W.U.Q.z.F.k     ",
"    .  .F.@.. . @ g ) m.t.{ ! ' Z ^.~.`       g C.k.k.b.&.#     ",
"    + T x.w.5 ; r n V.x.n.c.6.x h.Z.i.a e     k B.k.B.1.O       ",
"      5 N.M.k.} y :.B.k.k.b.n.f.b.x.<.p =   # f.m.z.b.`         ",
"      @ *.S.b.w.#.M.x.m.x.l.m.m.m.m.1 } u   < N.n.b.w..         ",
"        s o.r.b.N.k.x.n.x.x.m.m.x.x.$.3.z     @.b.n.g.#.g       ",
"          ^ l.k.z.n.x.x.m.n.m.m.x.n.B.M.g.3     / 8.D.0.<       ",
"        g S.n.n.m.x.x.x.n.m.x.n.x.x.x.k.v.j   b r.r.<.@         ",
"        ( y.n.k.x.m.x.x.x.x.x.x.x.x.k...W q X *.G.g .           ",
"      3 [ ( D.k.x.x.x.x.x.x.m.m.x.x.x...W w . , 8.<.@           ",
"    Q e.N n F.x.n.x.m.n.x.x.x.m.n.m.n.x.5.a H Y d i             ",
"    U G._ c V.z.m.m.x.m.m.z.m.k.m.x.z.V.B y U -                 ",
"      @.h : 6.M.z.m.m.z.m.a.m.m.x.z.z.B.N . .                   ",
"          . J.N.k.m.z.n.k.Q.A.p.z.z.z.F.M                       ",
"          . |.{.n.m.z.b.l.U.[.].b.M.B.0.<                       ",
"            8 .X/.t.B.5.d # 0 +XT.6.0.>                         ",
"              b X.y.*.O       $ 4 ] c .                         ",
"              ` _ ) @           2 @.B                           ",
"                                                                "
};
